<svg width="67" height="62" viewBox="0 0 67 62" fill="none" xmlns="http://www.w3.org/2000/svg">
<g filter="url(#filter0_d)">
<rect x="1.11768" width="58.6909" height="53.1671" rx="9" fill="#071F21"/>
</g>
<path d="M48.0905 18.9597C48.0077 17.0828 47.7041 15.7924 47.2693 14.6743C46.8206 13.4874 46.1304 12.4248 45.2262 11.5415C44.3427 10.6444 43.2729 9.94734 42.0995 9.50581C40.9747 9.07101 39.6909 8.76749 37.8136 8.68474C35.9223 8.59497 35.3219 8.57422 30.525 8.57422C25.7281 8.57422 25.1277 8.59497 23.2434 8.67773C21.3661 8.76048 20.0755 9.06427 18.9575 9.4988C17.7701 9.94734 16.7073 10.6374 15.8238 11.5415C14.9265 12.4248 14.2296 13.4944 13.7877 14.6675C13.3528 15.7924 13.0493 17.0758 12.9665 18.9527C12.8767 20.8436 12.856 21.4439 12.856 26.2399C12.856 31.0358 12.8767 31.6361 12.9595 33.5201C13.0423 35.397 13.3461 36.6874 13.781 37.8055C14.2296 38.9923 14.9265 40.0549 15.8238 40.9383C16.7073 41.8354 17.7771 42.5324 18.9504 42.974C20.0755 43.4088 21.3591 43.7123 23.2367 43.795C25.1207 43.878 25.7214 43.8985 30.5182 43.8985C35.3151 43.8985 35.9155 43.878 37.7998 43.795C39.6771 43.7123 40.9677 43.4088 42.0858 42.974C44.4602 42.0561 46.3375 40.1792 47.2555 37.8055C47.6901 36.6806 47.994 35.397 48.0767 33.5201C48.1595 31.6361 48.1803 31.0358 48.1803 26.2399C48.1803 21.4439 48.1733 20.8436 48.0905 18.9597ZM44.9088 33.3821C44.8328 35.1072 44.543 36.0388 44.3014 36.6599C43.7077 38.1988 42.4862 39.4201 40.947 40.0137C40.3258 40.2552 39.3873 40.545 37.6685 40.6207C35.805 40.7038 35.2461 40.7242 30.532 40.7242C25.8179 40.7242 25.252 40.7038 23.3952 40.6207C21.6697 40.545 20.7379 40.2552 20.1168 40.0137C19.3508 39.7307 18.6536 39.2821 18.0877 38.6956C17.501 38.1227 17.0524 37.4327 16.7693 36.6669C16.5277 36.0458 16.2379 35.1072 16.1622 33.3891C16.0791 31.5259 16.0586 30.9668 16.0586 26.2536C16.0586 21.5404 16.0791 20.9746 16.1622 19.1185C16.2379 17.3933 16.5277 16.4617 16.7693 15.8407C17.0524 15.0746 17.501 14.3778 18.0947 13.8117C18.6674 13.2251 19.3576 12.7766 20.1238 12.4938C20.745 12.2523 21.6837 11.9625 23.4022 11.8865C25.2657 11.8038 25.8249 11.783 30.5387 11.783C35.2598 11.783 35.8187 11.8038 37.6755 11.8865C39.401 11.9625 40.3328 12.2523 40.954 12.4938C41.7199 12.7766 42.4171 13.2251 42.983 13.8117C43.5697 14.3845 44.0183 15.0746 44.3014 15.8407C44.543 16.4617 44.8328 17.4 44.9088 19.1185C44.9916 20.9816 45.0124 21.5404 45.0124 26.2536C45.0124 30.9668 44.9916 31.5189 44.9088 33.3821Z" fill="white"/>
<path d="M30.5182 17.1008C25.4746 17.1008 21.3826 21.1926 21.3826 26.2364C21.3826 31.2802 25.4746 35.372 30.5182 35.372C35.562 35.372 39.6538 31.2802 39.6538 26.2364C39.6538 21.1926 35.562 17.1008 30.5182 17.1008ZM30.5182 32.1625C27.2462 32.1625 24.5921 29.5087 24.5921 26.2364C24.5921 22.9642 27.2462 20.3104 30.5182 20.3104C33.7904 20.3104 36.4442 22.9642 36.4442 26.2364C36.4442 29.5087 33.7904 32.1625 30.5182 32.1625Z" fill="white"/>
<path d="M42.0919 16.7957C42.0919 17.9729 41.1375 18.9273 39.9601 18.9273C38.783 18.9273 37.8286 17.9729 37.8286 16.7957C37.8286 15.6183 38.783 14.6641 39.9601 14.6641C41.1375 14.6641 42.0919 15.6183 42.0919 16.7957Z" fill="white"/>
<defs>
<filter id="filter0_d" x="0.117676" y="0" width="66.6909" height="61.1671" filterUnits="userSpaceOnUse" color-interpolation-filters="sRGB">
<feFlood flood-opacity="0" result="BackgroundImageFix"/>
<feColorMatrix in="SourceAlpha" type="matrix" values="0 0 0 0 0 0 0 0 0 0 0 0 0 0 0 0 0 0 127 0"/>
<feOffset dx="3" dy="4"/>
<feGaussianBlur stdDeviation="2"/>
<feColorMatrix type="matrix" values="0 0 0 0 0 0 0 0 0 0 0 0 0 0 0 0 0 0 0.14 0"/>
<feBlend mode="normal" in2="BackgroundImageFix" result="effect1_dropShadow"/>
<feBlend mode="normal" in="SourceGraphic" in2="effect1_dropShadow" result="shape"/>
</filter>
</defs>
</svg>
