<svg width="67" height="62" viewBox="0 0 67 62" fill="none" xmlns="http://www.w3.org/2000/svg">
<g filter="url(#filter0_d)">
<rect x="1.11816" y="0.81543" width="58.6909" height="53.1671" rx="9" fill="white"/>
</g>
<path d="M48.091 19.7751C48.0082 17.8982 47.7046 16.6078 47.2698 15.4897C46.8211 14.3029 46.1309 13.2403 45.2267 12.3569C44.3432 11.4598 43.2734 10.7628 42.1 10.3212C40.9752 9.88644 39.6913 9.58292 37.8141 9.50017C35.9228 9.4104 35.3223 9.38965 30.5255 9.38965C25.7286 9.38965 25.1282 9.4104 23.2439 9.49316C21.3666 9.57591 20.076 9.8797 18.9579 10.3142C17.7706 10.7628 16.7078 11.4528 15.8243 12.3569C14.927 13.2403 14.2301 14.3099 13.7882 15.483C13.3533 16.6078 13.0498 17.8912 12.967 19.7681C12.8772 21.6591 12.8564 22.2594 12.8564 27.0553C12.8564 31.8513 12.8772 32.4516 12.96 34.3355C13.0427 36.2124 13.3466 37.5028 13.7815 38.6209C14.2301 39.8078 14.927 40.8704 15.8243 41.7537C16.7078 42.6508 17.7776 43.3479 18.9509 43.7894C20.076 44.2242 21.3596 44.5277 23.2372 44.6105C25.1212 44.6935 25.7219 44.714 30.5187 44.714C35.3156 44.714 35.916 44.6935 37.8003 44.6105C39.6776 44.5277 40.9682 44.2242 42.0863 43.7894C44.4607 42.8715 46.338 40.9946 47.256 38.6209C47.6906 37.496 47.9945 36.2124 48.0772 34.3355C48.16 32.4516 48.1808 31.8513 48.1808 27.0553C48.1808 22.2594 48.1738 21.6591 48.091 19.7751ZM44.9093 34.1975C44.8333 35.9226 44.5435 36.8542 44.3019 37.4753C43.7082 39.0142 42.4866 40.2356 40.9474 40.8291C40.3263 41.0706 39.3878 41.3604 37.669 41.4362C35.8055 41.5192 35.2466 41.5397 30.5325 41.5397C25.8184 41.5397 25.2525 41.5192 23.3957 41.4362C21.6702 41.3604 20.7384 41.0706 20.1173 40.8291C19.3513 40.5461 18.6541 40.0975 18.0882 39.511C17.5015 38.9382 17.0529 38.2481 16.7698 37.4823C16.5282 36.8612 16.2384 35.9226 16.1626 34.2045C16.0796 32.3413 16.0591 31.7823 16.0591 27.0691C16.0591 22.3559 16.0796 21.7901 16.1626 19.9339C16.2384 18.2087 16.5282 17.2771 16.7698 16.6561C17.0529 15.89 17.5015 15.1932 18.0952 14.6271C18.6678 14.0406 19.358 13.592 20.1243 13.3093C20.7454 13.0677 21.6842 12.778 23.4027 12.702C25.2662 12.6192 25.8254 12.5985 30.5392 12.5985C35.2603 12.5985 35.8192 12.6192 37.676 12.702C39.4015 12.778 40.3333 13.0677 40.9545 13.3093C41.7204 13.592 42.4176 14.0406 42.9835 14.6271C43.5702 15.1999 44.0188 15.89 44.3019 16.6561C44.5435 17.2771 44.8333 18.2155 44.9093 19.9339C44.9921 21.7971 45.0129 22.3559 45.0129 27.0691C45.0129 31.7823 44.9921 32.3343 44.9093 34.1975Z" fill="#212121"/>
<path d="M30.5184 17.916C25.4749 17.916 21.3828 22.0078 21.3828 27.0516C21.3828 32.0954 25.4749 36.1872 30.5184 36.1872C35.5622 36.1872 39.654 32.0954 39.654 27.0516C39.654 22.0078 35.5622 17.916 30.5184 17.916ZM30.5184 32.9777C27.2464 32.9777 24.5924 30.3239 24.5924 27.0516C24.5924 23.7794 27.2464 21.1256 30.5184 21.1256C33.7907 21.1256 36.4444 23.7794 36.4444 27.0516C36.4444 30.3239 33.7907 32.9777 30.5184 32.9777Z" fill="#212121"/>
<path d="M42.0904 17.6111C42.0904 18.7883 41.136 19.7428 39.9587 19.7428C38.7816 19.7428 37.8271 18.7883 37.8271 17.6111C37.8271 16.4337 38.7816 15.4795 39.9587 15.4795C41.136 15.4795 42.0904 16.4337 42.0904 17.6111Z" fill="#212121"/>
<defs>
<filter id="filter0_d" x="0.118164" y="0.81543" width="66.6909" height="61.1671" filterUnits="userSpaceOnUse" color-interpolation-filters="sRGB">
<feFlood flood-opacity="0" result="BackgroundImageFix"/>
<feColorMatrix in="SourceAlpha" type="matrix" values="0 0 0 0 0 0 0 0 0 0 0 0 0 0 0 0 0 0 127 0"/>
<feOffset dx="3" dy="4"/>
<feGaussianBlur stdDeviation="2"/>
<feColorMatrix type="matrix" values="0 0 0 0 0 0 0 0 0 0 0 0 0 0 0 0 0 0 0.14 0"/>
<feBlend mode="normal" in2="BackgroundImageFix" result="effect1_dropShadow"/>
<feBlend mode="normal" in="SourceGraphic" in2="effect1_dropShadow" result="shape"/>
</filter>
</defs>
</svg>
