<svg width="67" height="62" viewBox="0 0 67 62" fill="none" xmlns="http://www.w3.org/2000/svg">
<g filter="url(#filter0_d)">
<rect x="1" y="0.81543" width="58.6909" height="53.1671" rx="9" fill="white"/>
</g>
<path d="M45.143 16.4911L47.9528 13.828V13.2451H38.2189L31.2817 30.3516L23.3892 13.2451H13.1829V13.828L16.4652 17.7427C16.785 18.032 16.9523 18.455 16.9097 18.8809V34.2648C17.011 34.8187 16.829 35.3885 16.4358 35.7911L12.7383 40.2306V40.8062H23.2219V40.2233L19.5244 35.7911C19.1239 35.387 18.9346 34.8274 19.0153 34.2648V20.9582L28.218 40.8135H29.2877L37.2007 20.9582V36.7753C37.2007 37.1925 37.2007 37.2782 36.9248 37.5515L34.0783 40.28V40.8644H47.8883V40.2815L45.1445 37.6198C44.9038 37.4396 44.7791 37.1372 44.8305 36.8436V17.2674C44.7791 16.9723 44.9024 16.6699 45.143 16.4911Z" fill="#212121"/>
<defs>
<filter id="filter0_d" x="0" y="0.81543" width="66.6909" height="61.1671" filterUnits="userSpaceOnUse" color-interpolation-filters="sRGB">
<feFlood flood-opacity="0" result="BackgroundImageFix"/>
<feColorMatrix in="SourceAlpha" type="matrix" values="0 0 0 0 0 0 0 0 0 0 0 0 0 0 0 0 0 0 127 0"/>
<feOffset dx="3" dy="4"/>
<feGaussianBlur stdDeviation="2"/>
<feColorMatrix type="matrix" values="0 0 0 0 0 0 0 0 0 0 0 0 0 0 0 0 0 0 0.14 0"/>
<feBlend mode="normal" in2="BackgroundImageFix" result="effect1_dropShadow"/>
<feBlend mode="normal" in="SourceGraphic" in2="effect1_dropShadow" result="shape"/>
</filter>
</defs>
</svg>
