<svg width="67" height="62" viewBox="0 0 67 62" fill="none" xmlns="http://www.w3.org/2000/svg">
<g filter="url(#filter0_d)">
<rect x="1" width="58.6909" height="53.1671" rx="9" fill="#071F21"/>
</g>
<path d="M45.143 15.6757L47.9528 13.0126V12.4297H38.2189L31.2817 29.5362L23.3892 12.4297H13.1829V13.0126L16.4652 16.9273C16.785 17.2165 16.9523 17.6396 16.9097 18.0655V33.4494C17.011 34.0032 16.829 34.5731 16.4358 34.9757L12.7383 39.4151V39.9908H23.2219V39.4079L19.5244 34.9757C19.1239 34.5716 18.9346 34.012 19.0153 33.4494V20.1427L28.218 39.9981H29.2877L37.2007 20.1427V35.9598C37.2007 36.377 37.2007 36.4628 36.9248 36.7361L34.0783 39.4646V40.0489H47.8883V39.466L45.1445 36.8044C44.9038 36.6242 44.7791 36.3218 44.8305 36.0282V16.4519C44.7791 16.1568 44.9024 15.8545 45.143 15.6757Z" fill="white"/>
<defs>
<filter id="filter0_d" x="0" y="0" width="66.6909" height="61.1671" filterUnits="userSpaceOnUse" color-interpolation-filters="sRGB">
<feFlood flood-opacity="0" result="BackgroundImageFix"/>
<feColorMatrix in="SourceAlpha" type="matrix" values="0 0 0 0 0 0 0 0 0 0 0 0 0 0 0 0 0 0 127 0"/>
<feOffset dx="3" dy="4"/>
<feGaussianBlur stdDeviation="2"/>
<feColorMatrix type="matrix" values="0 0 0 0 0 0 0 0 0 0 0 0 0 0 0 0 0 0 0.14 0"/>
<feBlend mode="normal" in2="BackgroundImageFix" result="effect1_dropShadow"/>
<feBlend mode="normal" in="SourceGraphic" in2="effect1_dropShadow" result="shape"/>
</filter>
</defs>
</svg>
