<svg width="67" height="62" viewBox="0 0 67 62" fill="none" xmlns="http://www.w3.org/2000/svg">
<g filter="url(#filter0_d)">
<rect x="1.17676" y="0.81543" width="58.6909" height="53.1671" rx="9" fill="white"/>
</g>
<path d="M26.7329 31.6663L26.1504 39.7631C26.9838 39.7631 27.3448 39.4093 27.7777 38.9845L31.6851 35.2942L39.7817 41.1537C41.2666 41.9715 42.3128 41.5408 42.7134 39.8037L48.028 15.1943L48.0294 15.1928C48.5005 13.0236 47.2356 12.1754 45.7889 12.7075L14.5499 24.5265C12.4179 25.3443 12.4502 26.5188 14.1875 27.0509L22.174 29.5058L40.7252 18.0348C41.5982 17.4635 42.392 17.7796 41.7391 18.3509L26.7329 31.6663Z" fill="#212121"/>
<defs>
<filter id="filter0_d" x="0.176758" y="0.81543" width="66.6909" height="61.1671" filterUnits="userSpaceOnUse" color-interpolation-filters="sRGB">
<feFlood flood-opacity="0" result="BackgroundImageFix"/>
<feColorMatrix in="SourceAlpha" type="matrix" values="0 0 0 0 0 0 0 0 0 0 0 0 0 0 0 0 0 0 127 0"/>
<feOffset dx="3" dy="4"/>
<feGaussianBlur stdDeviation="2"/>
<feColorMatrix type="matrix" values="0 0 0 0 0 0 0 0 0 0 0 0 0 0 0 0 0 0 0.14 0"/>
<feBlend mode="normal" in2="BackgroundImageFix" result="effect1_dropShadow"/>
<feBlend mode="normal" in="SourceGraphic" in2="effect1_dropShadow" result="shape"/>
</filter>
</defs>
</svg>
