<svg width="67" height="62" viewBox="0 0 67 62" fill="none" xmlns="http://www.w3.org/2000/svg">
<g filter="url(#filter0_d)">
<rect x="1.17651" width="58.6909" height="53.1671" rx="9" fill="#071F21"/>
</g>
<path d="M26.7326 30.8511L26.1501 38.9479C26.9835 38.9479 27.3444 38.5941 27.7773 38.1693L31.6847 34.479L39.7813 40.3385C41.2663 41.1563 42.3124 40.7256 42.713 38.9885L48.0276 14.3791L48.0291 14.3776C48.5001 12.2084 47.2353 11.3602 45.7885 11.8923L14.5495 23.7113C12.4175 24.5291 12.4498 25.7036 14.1871 26.2358L22.1736 28.6906L40.7248 17.2196C41.5979 16.6483 42.3917 16.9644 41.7387 17.5357L26.7326 30.8511Z" fill="white"/>
<defs>
<filter id="filter0_d" x="0.176514" y="0" width="66.6909" height="61.1671" filterUnits="userSpaceOnUse" color-interpolation-filters="sRGB">
<feFlood flood-opacity="0" result="BackgroundImageFix"/>
<feColorMatrix in="SourceAlpha" type="matrix" values="0 0 0 0 0 0 0 0 0 0 0 0 0 0 0 0 0 0 127 0"/>
<feOffset dx="3" dy="4"/>
<feGaussianBlur stdDeviation="2"/>
<feColorMatrix type="matrix" values="0 0 0 0 0 0 0 0 0 0 0 0 0 0 0 0 0 0 0.14 0"/>
<feBlend mode="normal" in2="BackgroundImageFix" result="effect1_dropShadow"/>
<feBlend mode="normal" in="SourceGraphic" in2="effect1_dropShadow" result="shape"/>
</filter>
</defs>
</svg>
