<svg width="67" height="62" viewBox="0 0 67 62" fill="none" xmlns="http://www.w3.org/2000/svg">
<g filter="url(#filter0_d)">
<rect x="1.05884" width="58.6909" height="53.1671" rx="9" fill="#071F21"/>
</g>
<path d="M48.5337 15.2673C47.2048 15.8446 45.7887 16.2273 44.3123 16.4131C45.8311 15.515 46.9903 14.1039 47.5353 12.403C46.1193 13.2391 44.5558 13.8296 42.8896 14.1592C41.545 12.7414 39.6286 11.8633 37.538 11.8633C33.4819 11.8633 30.2165 15.1236 30.2165 19.1204C30.2165 19.6954 30.2656 20.2484 30.3862 20.7748C24.2954 20.4807 18.9058 17.5898 15.2853 13.186C14.6532 14.272 14.2824 15.515 14.2824 16.8532C14.2824 19.3659 15.589 21.5932 17.5367 22.8827C16.3596 22.8606 15.2049 22.5222 14.2266 21.9891C14.2266 22.0113 14.2266 22.04 14.2266 22.0688C14.2266 25.5945 16.7661 28.5229 20.0963 29.1976C19.5 29.359 18.85 29.4364 18.1755 29.4364C17.7064 29.4364 17.2329 29.4099 16.7884 29.3126C17.7377 32.1858 20.4313 34.2981 23.6342 34.3667C21.1416 36.2976 17.9767 37.461 14.5504 37.461C13.9496 37.461 13.3734 37.4345 12.7971 37.3615C16.0424 39.434 19.8886 40.6174 24.0363 40.6174C37.5179 40.6174 44.8886 29.5581 44.8886 19.9719C44.8886 19.6512 44.8774 19.3416 44.8618 19.0341C46.3158 18.0122 47.5375 16.736 48.5337 15.2673Z" fill="white"/>
<defs>
<filter id="filter0_d" x="0.0588379" y="0" width="66.6909" height="61.1671" filterUnits="userSpaceOnUse" color-interpolation-filters="sRGB">
<feFlood flood-opacity="0" result="BackgroundImageFix"/>
<feColorMatrix in="SourceAlpha" type="matrix" values="0 0 0 0 0 0 0 0 0 0 0 0 0 0 0 0 0 0 127 0"/>
<feOffset dx="3" dy="4"/>
<feGaussianBlur stdDeviation="2"/>
<feColorMatrix type="matrix" values="0 0 0 0 0 0 0 0 0 0 0 0 0 0 0 0 0 0 0.14 0"/>
<feBlend mode="normal" in2="BackgroundImageFix" result="effect1_dropShadow"/>
<feBlend mode="normal" in="SourceGraphic" in2="effect1_dropShadow" result="shape"/>
</filter>
</defs>
</svg>
