<svg width="67" height="62" viewBox="0 0 67 62" fill="none" xmlns="http://www.w3.org/2000/svg">
<g filter="url(#filter0_d)">
<rect x="1.05859" y="0.81543" width="58.6909" height="53.1671" rx="9" fill="white"/>
</g>
<path d="M48.5335 16.0828C47.2045 16.66 45.7884 17.0427 44.3121 17.2285C45.8309 16.3305 46.9901 14.9193 47.5351 13.2184C46.119 14.0545 44.5555 14.645 42.8893 14.9746C41.5447 13.5568 39.6284 12.6787 37.5378 12.6787C33.4817 12.6787 30.2162 15.939 30.2162 19.9358C30.2162 20.5109 30.2654 21.0638 30.386 21.5903C24.2951 21.2961 18.9056 18.4052 15.285 14.0014C14.6529 15.0874 14.2822 16.3305 14.2822 17.6686C14.2822 20.1813 15.5888 22.4086 17.5364 23.6982C16.3594 23.676 15.2046 23.3376 14.2263 22.8046C14.2263 22.8267 14.2263 22.8554 14.2263 22.8842C14.2263 26.4099 16.7659 29.3384 20.0961 30.013C19.4997 30.1745 18.8498 30.2519 18.1752 30.2519C17.7062 30.2519 17.2327 30.2253 16.7882 30.128C17.7375 33.0012 20.4311 35.1135 23.634 35.1821C21.1414 37.113 17.9764 38.2765 14.5502 38.2765C13.9494 38.2765 13.3731 38.2499 12.7969 38.1769C16.0422 40.2494 19.8884 41.4328 24.036 41.4328C37.5177 41.4328 44.8883 30.3735 44.8883 20.7874C44.8883 20.4666 44.8772 20.157 44.8615 19.8495C46.3156 18.8277 47.5373 17.5514 48.5335 16.0828Z" fill="#212121"/>
<defs>
<filter id="filter0_d" x="0.0585938" y="0.81543" width="66.6909" height="61.1671" filterUnits="userSpaceOnUse" color-interpolation-filters="sRGB">
<feFlood flood-opacity="0" result="BackgroundImageFix"/>
<feColorMatrix in="SourceAlpha" type="matrix" values="0 0 0 0 0 0 0 0 0 0 0 0 0 0 0 0 0 0 127 0"/>
<feOffset dx="3" dy="4"/>
<feGaussianBlur stdDeviation="2"/>
<feColorMatrix type="matrix" values="0 0 0 0 0 0 0 0 0 0 0 0 0 0 0 0 0 0 0.14 0"/>
<feBlend mode="normal" in2="BackgroundImageFix" result="effect1_dropShadow"/>
<feBlend mode="normal" in="SourceGraphic" in2="effect1_dropShadow" result="shape"/>
</filter>
</defs>
</svg>
