<svg width="82" height="102" viewBox="0 0 82 102" fill="none" xmlns="http://www.w3.org/2000/svg">
<g filter="url(#filter0_d)">
<path fill-rule="evenodd" clip-rule="evenodd" d="M40.265 11.293C36.7882 11.293 30.2599 11.6759 24.7927 13.0618C19.1996 14.4711 4.15527 20.4537 4.07596 22.3467C3.32374 40.3018 8.16918 58.6237 18.1243 70.8709C21.7099 75.282 25.985 79.1665 30.8071 82.3947C32.752 83.6772 34.556 84.6591 36.0878 85.3309C37.6625 85.7951 39.3018 86.3547 40.4816 86.5758C41.6731 86.3547 42.9251 85.9126 44.4422 85.3309C46.4024 84.5792 48.0555 83.5118 49.7229 82.3947C54.545 79.1666 58.8202 75.2821 62.4056 70.8709C72.3771 58.6029 77.895 40.7719 76.9909 22.3467C72.8683 19.3967 60.5022 14.3148 55.6186 13.0618C50.1514 11.6853 43.7418 11.293 40.265 11.293Z" fill="url(#paint0_angular)"/>
</g>
<g filter="url(#filter1_d)">
<mask id="path-2-outside-1" maskUnits="userSpaceOnUse" x="9.94499" y="-3.47391" width="62.6611" height="102.587" fill="black">
<rect fill="white" x="9.94499" y="-3.47391" width="62.6611" height="102.587"/>
<path d="M24.9656 90.6062C24.9586 90.6153 24.9444 90.6074 24.9483 90.5967L39.4636 50.7273C39.4661 50.7204 39.4606 50.7133 39.4533 50.7139L19.0381 52.5383C19.0295 52.5391 19.0238 52.5298 19.0288 52.5228C26.6819 41.9936 40.1518 24.7238 55.4785 3.79047C55.485 3.78154 55.4992 3.78807 55.4963 3.79877L46.3253 37.8723C46.3236 37.8785 46.3282 37.8847 46.3347 37.8849L65.1059 38.3818C65.1141 38.3821 65.1186 38.3915 65.1136 38.3979L24.9656 90.6062Z"/>
</mask>
<path d="M24.9656 90.6062C24.9586 90.6153 24.9444 90.6074 24.9483 90.5967L39.4636 50.7273C39.4661 50.7204 39.4606 50.7133 39.4533 50.7139L19.0381 52.5383C19.0295 52.5391 19.0238 52.5298 19.0288 52.5228C26.6819 41.9936 40.1518 24.7238 55.4785 3.79047C55.485 3.78154 55.4992 3.78807 55.4963 3.79877L46.3253 37.8723C46.3236 37.8785 46.3282 37.8847 46.3347 37.8849L65.1059 38.3818C65.1141 38.3821 65.1186 38.3915 65.1136 38.3979L24.9656 90.6062Z" fill="url(#paint1_angular)"/>
<path d="M65.1059 38.3818L65.0265 41.3808L65.1059 38.3818ZM65.1136 38.3979L62.7355 36.5692L65.1136 38.3979ZM46.3253 37.8723L43.4284 37.0926L46.3253 37.8723ZM46.3347 37.8849L46.2553 40.8838L46.3347 37.8849ZM55.4785 3.79047L57.899 5.56272L55.4785 3.79047ZM55.4963 3.79877L58.3932 4.57848L55.4963 3.79877ZM19.0381 52.5383L18.771 49.5502L19.0381 52.5383ZM19.0288 52.5228L21.4555 54.2867L19.0288 52.5228ZM39.4636 50.7273L42.2826 51.7536L39.4636 50.7273ZM39.4533 50.7139L39.7203 53.702L39.4533 50.7139ZM24.9483 90.5967L27.7673 91.623L24.9483 90.5967ZM24.9656 90.6062L27.3437 92.435L24.9656 90.6062ZM27.7673 91.623L42.2826 51.7536L36.6446 49.701L22.1293 89.5704L27.7673 91.623ZM39.1863 47.7258L18.771 49.5502L19.3051 55.5264L39.7203 53.702L39.1863 47.7258ZM21.4555 54.2867C25.2605 49.0518 30.517 42.1337 36.7688 33.8679C43.0105 25.6152 50.2213 16.0491 57.899 5.56272L53.0579 2.01822C45.409 12.4652 38.2215 22.0006 31.9834 30.2485C25.7552 38.4832 20.4503 45.4646 16.6021 50.759L21.4555 54.2867ZM52.5994 3.01905L43.4284 37.0926L49.2222 38.652L58.3932 4.57848L52.5994 3.01905ZM46.2553 40.8838L65.0265 41.3808L65.1853 35.3829L46.4141 34.8859L46.2553 40.8838ZM62.7355 36.5692L22.5875 88.7774L27.3437 92.435L67.4917 40.2267L62.7355 36.5692ZM65.0265 41.3808C62.5831 41.3161 61.2457 38.5064 62.7355 36.5692L67.4917 40.2267C68.9914 38.2765 67.6452 35.448 65.1853 35.3829L65.0265 41.3808ZM43.4284 37.0926C42.9222 38.9733 44.3084 40.8323 46.2553 40.8838L46.4141 34.8859C48.348 34.9371 49.725 36.7837 49.2222 38.652L43.4284 37.0926ZM57.899 5.56272C56.9385 6.87456 55.3309 7.0182 54.2324 6.5105C53.1188 5.99587 52.1644 4.6355 52.5994 3.01905L58.3932 4.57848C58.8312 2.95134 57.8711 1.58236 56.7495 1.06402C55.6429 0.552606 54.0249 0.697444 53.0579 2.01822L57.899 5.56272ZM18.771 49.5502C21.0538 49.3462 23.1248 51.9901 21.4555 54.2867L16.6021 50.759C14.9228 53.0694 17.0053 55.7319 19.3051 55.5264L18.771 49.5502ZM42.2826 51.7536C43.0364 49.683 41.3827 47.5295 39.1863 47.7258L39.7203 53.702C37.5385 53.897 35.8958 51.7578 36.6446 49.701L42.2826 51.7536ZM22.1293 89.5704C20.9518 92.8046 25.2464 95.1623 27.3437 92.435L22.5875 88.7774C24.6708 86.0682 28.9369 88.4102 27.7673 91.623L22.1293 89.5704Z" fill="white" mask="url(#path-2-outside-1)"/>
</g>
<defs>
<filter id="filter0_d" x="0" y="11.293" width="81.0871" height="83.2828" filterUnits="userSpaceOnUse" color-interpolation-filters="sRGB">
<feFlood flood-opacity="0" result="BackgroundImageFix"/>
<feColorMatrix in="SourceAlpha" type="matrix" values="0 0 0 0 0 0 0 0 0 0 0 0 0 0 0 0 0 0 127 0"/>
<feOffset dy="4"/>
<feGaussianBlur stdDeviation="2"/>
<feColorMatrix type="matrix" values="0 0 0 0 0 0 0 0 0 0 0 0 0 0 0 0 0 0 0.25 0"/>
<feBlend mode="normal" in2="BackgroundImageFix" result="effect1_dropShadow"/>
<feBlend mode="normal" in="SourceGraphic" in2="effect1_dropShadow" result="shape"/>
</filter>
<filter id="filter1_d" x="11.9927" y="0.790527" width="60.1282" height="100.84" filterUnits="userSpaceOnUse" color-interpolation-filters="sRGB">
<feFlood flood-opacity="0" result="BackgroundImageFix"/>
<feColorMatrix in="SourceAlpha" type="matrix" values="0 0 0 0 0 0 0 0 0 0 0 0 0 0 0 0 0 0 127 0"/>
<feOffset dy="4"/>
<feGaussianBlur stdDeviation="2"/>
<feColorMatrix type="matrix" values="0 0 0 0 0 0 0 0 0 0 0 0 0 0 0 0 0 0 0.25 0"/>
<feBlend mode="normal" in2="BackgroundImageFix" result="effect1_dropShadow"/>
<feBlend mode="normal" in="SourceGraphic" in2="effect1_dropShadow" result="shape"/>
</filter>
<radialGradient id="paint0_angular" cx="0" cy="0" r="1" gradientUnits="userSpaceOnUse" gradientTransform="translate(40.5435 48.9344) rotate(48.3665) scale(35.8833 34.8367)">
<stop offset="0.0757176" stop-color="#0C494F"/>
<stop offset="0.227709" stop-color="#063B3F"/>
<stop offset="0.366988" stop-color="#0D7076"/>
<stop offset="0.497642" stop-color="#0A4D52"/>
<stop offset="0.635328" stop-color="#0D6E75"/>
<stop offset="0.773186" stop-color="#0C6D74"/>
<stop offset="0.923334" stop-color="#0A4045"/>
</radialGradient>
<radialGradient id="paint1_angular" cx="0" cy="0" r="1" gradientUnits="userSpaceOnUse" gradientTransform="translate(41.954 43.4445) rotate(96.7109) scale(48.9648 23.924)">
<stop offset="0.0350893" stop-color="#071F21"/>
<stop offset="0.293192" stop-color="#0D3538"/>
<stop offset="0.617447" stop-color="#0E3C40"/>
<stop offset="0.815288" stop-color="#195759"/>
</radialGradient>
</defs>
</svg>
