<svg width="44" height="32" viewBox="0 0 44 32" fill="none" xmlns="http://www.w3.org/2000/svg">
<path fill-rule="evenodd" clip-rule="evenodd" d="M32.2674 8.95947L32.2673 8.96073L34.5272 8.97293C34.7844 8.95386 35.0437 8.95496 35.3028 8.97688L40.8227 9.00648C41.6622 9.05498 42.3277 9.75665 42.3277 10.6155C42.3277 11.0214 42.179 11.3921 41.9338 11.6752L39.2478 16.3666C39.2266 16.4061 39.2047 16.4455 39.1823 16.4848L32.5361 28.124C31.6358 29.7007 30.0168 30.5963 28.3391 30.6319L28.3393 30.633L28.2611 30.633C28.2179 30.6332 28.1747 30.6329 28.1314 30.6319L8.46441 30.5305H6.27271L6.27282 30.4912C7.93783 30.2578 9.33869 29.189 10.048 27.7169L10.0639 27.7173L19.6991 10.7742C20.2399 9.69737 21.3458 8.95947 22.6221 8.95947L22.5332 8.96137L22.5363 8.95947H32.2674Z" fill="#0E90FF"/>
<path fill-rule="evenodd" clip-rule="evenodd" d="M16.8722 0.645886L34.2317 0.646165C35.071 0.694723 35.7364 1.39637 35.7364 2.25517C35.7364 2.59941 35.6295 2.9184 35.4474 3.18004L30.7624 11.4036L25.7821 20.1435L25.7849 20.1427H25.8255L24.2327 22.9341C22.8901 25.2854 23.6441 28.2788 25.9082 29.7014L26.0487 29.7865C26.6865 30.1588 27.3721 30.3717 28.0603 30.4373L28.0605 30.5547L19.8532 30.5545L19.8499 30.5618H5.61713C4.80899 30.547 3.98839 30.3401 3.22918 29.9146C0.78747 28.5461 -0.0947295 25.4354 1.25873 22.9666L12.0598 3.2649C13.0497 1.45926 14.9614 0.497099 16.8722 0.645886Z" fill="#2B6DEF"/>
<path fill-rule="evenodd" clip-rule="evenodd" d="M22.566 8.96053L32.1253 8.9704L30.7426 11.3983L25.7622 20.1382L25.765 20.1374H25.8056L24.2129 22.9288C22.8703 25.2801 23.6243 28.2735 25.8883 29.6961L26.0288 29.7812C26.6666 30.1535 27.3522 30.3664 28.0404 30.432L28.0406 30.5494L19.8333 30.5492L19.8301 30.5565L6.23682 30.5569C7.7438 30.3989 9.15858 29.56 10.0111 28.173L10.107 28.0105L20.1607 10.2417C20.731 9.49656 21.6084 9.00394 22.6012 8.95801L22.566 8.96053Z" fill="#3E3E3E"/>
<path fill-rule="evenodd" clip-rule="evenodd" d="M22.566 8.96053L32.1253 8.9704L30.7426 11.3983L25.7622 20.1382L25.765 20.1374H25.8056L24.2129 22.9288C22.8703 25.2801 23.6243 28.2735 25.8883 29.6961L26.0288 29.7812C26.6666 30.1535 27.3522 30.3664 28.0404 30.432L28.0406 30.5494L19.8333 30.5492L19.8301 30.5565L6.23682 30.5569C7.7438 30.3989 9.15858 29.56 10.0111 28.173L10.107 28.0105L20.1607 10.2417C20.731 9.49656 21.6084 9.00394 22.6012 8.95801L22.566 8.96053Z" fill="#0CC19B" fill-opacity="0.5"/>
<path fill-rule="evenodd" clip-rule="evenodd" d="M22.566 8.96053L32.1253 8.9704L30.7426 11.3983L25.7622 20.1382L25.765 20.1374H25.8056L24.2129 22.9288C22.8703 25.2801 23.6243 28.2735 25.8883 29.6961L26.0288 29.7812C26.6666 30.1535 27.3522 30.3664 28.0404 30.432L28.0406 30.5494L19.8333 30.5492L19.8301 30.5565L6.23682 30.5569C7.7438 30.3989 9.15858 29.56 10.0111 28.173L10.107 28.0105L20.1607 10.2417C20.731 9.49656 21.6084 9.00394 22.6012 8.95801L22.566 8.96053Z" fill="#003CB2"/>
</svg>
