<svg width="38" height="43" viewBox="0 0 38 43" fill="none" xmlns="http://www.w3.org/2000/svg">
<path d="M18.9545 4.18502C21.8693 4.01769 24.5691 4.80656 27.1017 6.16916C27.6273 6.45602 27.9379 6.40821 28.3918 6.04963C30.6138 4.18503 32.8596 2.36823 35.1054 0.527525C35.7983 -0.0462008 36.5389 -0.213535 37.3035 0.336286C38.2591 1.02954 38.2353 2.20089 37.2079 3.08539C35.2488 4.73485 33.2896 6.3604 31.2827 7.93815C30.6854 8.41625 30.6138 8.6553 31.1872 9.25293C40.4572 18.8389 36.3478 34.6403 23.6373 38.2739C19.2412 39.5409 14.9646 39.0149 10.9269 36.8635C10.3535 36.5527 10.019 36.6244 9.56502 37.0069C7.39086 38.8237 5.19281 40.6166 2.99476 42.4095C2.37357 42.9115 1.75239 43.1984 0.963954 42.8398C-0.206747 42.29 -0.350101 40.8796 0.748925 39.9712C2.68417 38.3456 4.6433 36.7439 6.62632 35.1901C7.2953 34.6642 7.41476 34.4251 6.74578 33.6841C1.9913 28.5445 0.510009 22.5203 2.75584 15.8986C5.04946 9.15731 9.97118 5.28466 17.0193 4.20893C17.6644 4.0894 18.3094 4.18502 18.9545 4.18502ZM10.234 10.7112C10.019 10.6633 9.9234 10.8068 9.82783 10.9024C3.71152 16.0659 3.52038 26.2974 9.42167 31.7239C9.94729 32.2259 10.2818 32.1541 10.7835 31.7239C15.3946 27.9229 20.0297 24.1459 24.6408 20.345C25.2859 19.8191 25.9548 19.5083 26.7433 19.9147C27.5078 20.2971 27.6751 20.9904 27.6512 21.7793C27.6273 24.4567 27.6512 27.134 27.6512 29.8114C27.6512 30.6242 27.6512 31.437 27.6512 32.2737C27.8184 32.2498 27.8901 32.2498 27.914 32.2259C34.2692 27.2297 34.5081 16.4006 28.4157 11.0936C27.8423 10.5916 27.5795 10.9024 27.1972 11.2132C22.6339 14.9663 18.0466 18.7194 13.4833 22.4725C12.8143 23.0223 12.1215 23.4765 11.2375 23.0463C10.3773 22.616 10.3057 21.851 10.3057 20.9904C10.3296 17.8588 10.3057 14.7033 10.3057 11.5717C10.3296 11.3088 10.4251 10.998 10.234 10.7112ZM24.3541 24.863C20.4836 28.0424 16.7804 31.0784 12.9577 34.1861C16.6848 35.8834 20.3164 36.0268 23.9957 34.6164C24.378 34.4729 24.3302 34.1383 24.3302 33.8514C24.3302 32.5844 24.3302 31.3175 24.3302 30.0505C24.3541 28.4249 24.3541 26.7755 24.3541 24.863ZM24.9514 8.82264C24.7841 8.72702 24.7125 8.6553 24.6408 8.6314C21.1765 7.12537 17.6883 7.02975 14.1284 8.29673C13.6266 8.48797 13.6266 8.82264 13.6266 9.22903C13.6266 11.8347 13.6266 14.4643 13.6266 17.0699C13.6266 17.3329 13.4594 17.6915 13.7939 17.811C14.0806 17.9066 14.2717 17.5719 14.4629 17.4046C16.852 15.4683 19.2412 13.5081 21.6065 11.5717C22.7055 10.6873 23.8046 9.77885 24.9514 8.82264Z" fill="#2B6DEF"/>
</svg>
